<svg width="201" height="35" viewBox="0 0 201 35" fill="none" xmlns="http://www.w3.org/2000/svg">
<path d="M18.296 26V20.456H16.892V24.596H4.328V14.012H16.388V12.572H4.328V2.204H16.388V6.344H17.792V0.799998H0.26V2.204H2.852V24.596H0.26V26H18.296ZM27.7744 26V24.596H25.1104V18.62C25.1104 17.876 25.2664 17.192 25.5784 16.568C25.8904 15.92 26.3224 15.392 26.8744 14.984C27.3544 14.576 27.9064 14.264 28.5304 14.048C29.1784 13.808 29.8624 13.688 30.5824 13.688L30.6544 12.212C30.1024 12.236 29.5504 12.332 28.9984 12.5C28.4704 12.668 27.9544 12.908 27.4504 13.22C26.9224 13.532 26.4424 13.928 26.0104 14.408C25.6024 14.864 25.2664 15.392 25.0024 15.992C24.9784 15.584 24.9664 15.32 24.9664 15.2C24.9664 15.08 24.9544 14.816 24.9304 14.408L24.8224 12.5H21.0424V13.904H23.6344V24.596H20.8264V26H27.7744ZM44.6863 24.704L43.7503 23.588C43.2703 23.972 42.7303 24.272 42.1303 24.488C41.5303 24.704 40.8943 24.812 40.2223 24.812C39.4543 24.812 38.7223 24.668 38.0263 24.38C37.3543 24.092 36.7783 23.708 36.2983 23.228C35.7703 22.724 35.3623 22.136 35.0743 21.464C34.7863 20.768 34.6423 20.024 34.6423 19.232C34.6423 18.44 34.7863 17.708 35.0743 17.036C35.3623 16.34 35.7823 15.728 36.3343 15.2C36.8143 14.72 37.3903 14.348 38.0623 14.084C38.7343 13.796 39.4543 13.652 40.2223 13.652C40.8223 13.652 41.3863 13.736 41.9143 13.904C42.4423 14.072 42.9223 14.312 43.3543 14.624V17.288H44.7223V13.76C44.1223 13.28 43.4383 12.908 42.6703 12.644C41.9023 12.356 41.0863 12.212 40.2223 12.212C39.2383 12.212 38.3143 12.404 37.4503 12.788C36.6103 13.148 35.8663 13.64 35.2183 14.264C34.5703 14.888 34.0663 15.632 33.7063 16.496C33.3463 17.36 33.1663 18.272 33.1663 19.232C33.1663 20.216 33.3463 21.14 33.7063 22.004C34.0663 22.844 34.5823 23.576 35.2543 24.2C35.8783 24.848 36.6103 25.352 37.4503 25.712C38.3143 26.072 39.2383 26.252 40.2223 26.252C41.0863 26.252 41.8903 26.12 42.6343 25.856C43.3783 25.568 44.0623 25.184 44.6863 24.704ZM64.0768 26V24.596H61.4128V12.5H60.2248C60.1768 13.028 60.1408 13.568 60.1168 14.12C60.0928 14.648 60.0808 15.164 60.0808 15.668C59.6728 14.732 58.9648 13.928 57.9568 13.256C56.9488 12.56 55.7368 12.212 54.3208 12.212C53.3128 12.212 52.3768 12.404 51.5128 12.788C50.6728 13.148 49.9288 13.64 49.2808 14.264C48.6328 14.912 48.1288 15.668 47.7688 16.532C47.4088 17.396 47.2288 18.296 47.2288 19.232C47.2288 20.216 47.4088 21.128 47.7688 21.968C48.1288 22.808 48.6328 23.552 49.2808 24.2C49.9288 24.848 50.6728 25.352 51.5128 25.712C52.3768 26.072 53.3128 26.252 54.3208 26.252C55.0408 26.252 55.7128 26.156 56.3368 25.964C56.9848 25.772 57.5608 25.508 58.0648 25.172C58.5448 24.86 58.9528 24.512 59.2888 24.128C59.6488 23.72 59.9128 23.3 60.0808 22.868C60.0808 23.18 60.0808 23.468 60.0808 23.732C60.0808 23.972 60.0808 24.236 60.0808 24.524V26H64.0768ZM54.3208 13.652C55.0888 13.652 55.8088 13.796 56.4808 14.084C57.1528 14.348 57.7528 14.732 58.2808 15.236C58.7848 15.74 59.1808 16.34 59.4688 17.036C59.7808 17.708 59.9368 18.44 59.9368 19.232C59.9368 20.024 59.7808 20.768 59.4688 21.464C59.1808 22.136 58.7728 22.724 58.2448 23.228C57.7408 23.732 57.1528 24.128 56.4808 24.416C55.8088 24.68 55.0888 24.812 54.3208 24.812C53.5528 24.812 52.8448 24.68 52.1968 24.416C51.5488 24.152 50.9728 23.78 50.4688 23.3C49.9168 22.796 49.4848 22.196 49.1728 21.5C48.8608 20.804 48.7048 20.048 48.7048 19.232C48.7048 18.464 48.8368 17.744 49.1008 17.072C49.3888 16.4 49.7848 15.812 50.2888 15.308C50.7688 14.78 51.3568 14.372 52.0528 14.084C52.7488 13.796 53.5048 13.652 54.3208 13.652ZM73.5478 26V24.596H70.8838V18.62C70.8838 17.9 71.0278 17.24 71.3158 16.64C71.6278 16.04 72.0478 15.512 72.5758 15.056C73.0558 14.624 73.6318 14.288 74.3038 14.048C74.9758 13.808 75.6838 13.688 76.4278 13.688C77.4358 13.736 78.1918 14.048 78.6958 14.624C79.2238 15.176 79.5118 15.848 79.5598 16.64V24.596H76.7518V26H83.6998V24.596H81.0358V16.244C80.9878 15.044 80.5798 14.072 79.8118 13.328C79.0438 12.584 77.9998 12.212 76.6798 12.212C75.3358 12.212 74.1358 12.56 73.0798 13.256C72.0238 13.952 71.2558 14.864 70.7758 15.992C70.7518 15.584 70.7278 15.224 70.7038 14.912C70.6798 14.576 70.6558 14.204 70.6318 13.796L70.5958 12.5H66.8158V13.904H69.4078V24.596H66.5998V26H73.5478ZM115.046 26V20.456H113.642V24.596H101.078V14.012H113.138V12.572H101.078V2.204H113.138V6.344H114.542V0.799998H97.01V2.204H99.602V24.596H97.01V26H115.046ZM124.524 26V24.596H121.86V18.62C121.86 17.876 122.016 17.192 122.328 16.568C122.64 15.92 123.072 15.392 123.624 14.984C124.104 14.576 124.656 14.264 125.28 14.048C125.928 13.808 126.612 13.688 127.332 13.688L127.404 12.212C126.852 12.236 126.3 12.332 125.748 12.5C125.22 12.668 124.704 12.908 124.2 13.22C123.672 13.532 123.192 13.928 122.76 14.408C122.352 14.864 122.016 15.392 121.752 15.992C121.728 15.584 121.716 15.32 121.716 15.2C121.716 15.08 121.704 14.816 121.68 14.408L121.572 12.5H117.792V13.904H120.384V24.596H117.576V26H124.524ZM141.436 24.704L140.5 23.588C140.02 23.972 139.48 24.272 138.88 24.488C138.28 24.704 137.644 24.812 136.972 24.812C136.204 24.812 135.472 24.668 134.776 24.38C134.104 24.092 133.528 23.708 133.048 23.228C132.52 22.724 132.112 22.136 131.824 21.464C131.536 20.768 131.392 20.024 131.392 19.232C131.392 18.44 131.536 17.708 131.824 17.036C132.112 16.34 132.532 15.728 133.084 15.2C133.564 14.72 134.14 14.348 134.812 14.084C135.484 13.796 136.204 13.652 136.972 13.652C137.572 13.652 138.136 13.736 138.664 13.904C139.192 14.072 139.672 14.312 140.104 14.624V17.288H141.472V13.76C140.872 13.28 140.188 12.908 139.42 12.644C138.652 12.356 137.836 12.212 136.972 12.212C135.988 12.212 135.064 12.404 134.2 12.788C133.36 13.148 132.616 13.64 131.968 14.264C131.32 14.888 130.816 15.632 130.456 16.496C130.096 17.36 129.916 18.272 129.916 19.232C129.916 20.216 130.096 21.14 130.456 22.004C130.816 22.844 131.332 23.576 132.004 24.2C132.628 24.848 133.36 25.352 134.2 25.712C135.064 26.072 135.988 26.252 136.972 26.252C137.836 26.252 138.64 26.12 139.384 25.856C140.128 25.568 140.812 25.184 141.436 24.704ZM150.927 26V24.596H148.227V12.5H143.979V13.904H146.751V24.596H143.979V26H150.927ZM148.695 7.712C148.695 7.376 148.575 7.1 148.335 6.884C148.095 6.644 147.819 6.524 147.507 6.524C147.219 6.524 146.955 6.644 146.715 6.884C146.475 7.1 146.355 7.376 146.355 7.712C146.355 8.048 146.475 8.336 146.715 8.576C146.955 8.792 147.219 8.9 147.507 8.9C147.819 8.9 148.095 8.792 148.335 8.576C148.575 8.336 148.695 8.048 148.695 7.712ZM162.436 35V33.596H160.132C161.764 30.284 163.396 27.008 165.028 23.768C166.66 20.504 168.292 17.216 169.924 13.904H172.552V12.5H166.252V13.904H168.34C167.428 15.728 166.516 17.54 165.604 19.34C164.716 21.14 163.876 22.916 163.084 24.668C162.244 22.868 161.368 21.08 160.456 19.304C159.568 17.528 158.68 15.728 157.792 13.904H160.096V12.5H153.436V13.904H156.208C157.216 15.968 158.224 18.008 159.232 20.024C160.24 22.04 161.26 24.056 162.292 26.072C161.668 27.32 161.032 28.568 160.384 29.816C159.76 31.064 159.148 32.324 158.548 33.596H155.488V35H162.436ZM182.113 13.652C183.049 13.652 183.889 13.916 184.633 14.444C185.401 14.948 186.001 15.608 186.433 16.424C184.801 17.072 183.169 17.72 181.537 18.368C179.929 18.992 178.309 19.628 176.677 20.276C176.509 19.46 176.521 18.668 176.713 17.9C176.905 17.108 177.241 16.4 177.721 15.776C178.225 15.128 178.849 14.612 179.593 14.228C180.361 13.844 181.201 13.652 182.113 13.652ZM186.829 24.38L185.929 23.3C185.425 23.78 184.849 24.152 184.201 24.416C183.553 24.68 182.857 24.812 182.113 24.812C180.985 24.812 179.977 24.524 179.089 23.948C178.201 23.372 177.541 22.616 177.109 21.68C178.981 20.912 180.841 20.168 182.689 19.448C184.561 18.728 186.433 17.996 188.305 17.252C188.065 16.532 187.753 15.872 187.369 15.272C186.985 14.648 186.541 14.12 186.037 13.688C185.509 13.208 184.909 12.848 184.237 12.608C183.565 12.344 182.857 12.212 182.113 12.212C181.129 12.212 180.205 12.404 179.341 12.788C178.501 13.148 177.757 13.64 177.109 14.264C176.461 14.888 175.957 15.632 175.597 16.496C175.237 17.36 175.057 18.272 175.057 19.232C175.057 20.216 175.237 21.128 175.597 21.968C175.957 22.808 176.461 23.552 177.109 24.2C177.757 24.848 178.501 25.352 179.341 25.712C180.205 26.072 181.129 26.252 182.113 26.252C183.049 26.252 183.913 26.084 184.705 25.748C185.497 25.412 186.205 24.956 186.829 24.38ZM199.191 24.848C199.528 24.464 199.768 24.044 199.912 23.588C200.08 23.108 200.164 22.652 200.164 22.22C200.164 21.452 199.996 20.84 199.66 20.384C199.348 19.928 198.952 19.556 198.472 19.268C197.968 18.98 197.428 18.752 196.852 18.584C196.3 18.392 195.772 18.188 195.268 17.972C194.788 17.78 194.368 17.54 194.008 17.252C193.672 16.94 193.504 16.52 193.504 15.992C193.504 15.584 193.576 15.236 193.72 14.948C193.864 14.66 194.044 14.42 194.26 14.228C194.5 14.06 194.776 13.94 195.088 13.868C195.424 13.772 195.748 13.724 196.06 13.724C196.468 13.724 196.852 13.772 197.212 13.868C197.572 13.964 197.92 14.108 198.256 14.3V16.172H199.624V13.544C199.384 13.328 199.12 13.148 198.832 13.004C198.544 12.836 198.244 12.692 197.932 12.572C197.548 12.452 197.212 12.38 196.924 12.356C196.636 12.308 196.336 12.284 196.024 12.284C195.592 12.284 195.124 12.368 194.62 12.536C194.116 12.68 193.672 12.908 193.288 13.22C192.904 13.532 192.592 13.916 192.352 14.372C192.136 14.828 192.028 15.38 192.028 16.028C192.028 16.82 192.184 17.444 192.496 17.9C192.832 18.332 193.252 18.668 193.756 18.908C194.26 19.148 194.8 19.352 195.376 19.52C195.952 19.688 196.48 19.88 196.96 20.096C197.464 20.288 197.872 20.552 198.184 20.888C198.496 21.224 198.652 21.704 198.652 22.328C198.652 22.76 198.568 23.132 198.4 23.444C198.256 23.732 198.052 23.984 197.788 24.2C197.5 24.416 197.188 24.584 196.852 24.704C196.516 24.8 196.168 24.848 195.808 24.848C195.28 24.848 194.776 24.812 194.296 24.74C193.816 24.644 193.348 24.452 192.892 24.164V22.328H191.56V24.956C192.112 25.484 192.748 25.832 193.468 26C194.212 26.192 194.968 26.288 195.736 26.288C196.552 26.288 197.236 26.156 197.788 25.892C198.364 25.628 198.832 25.28 199.191 24.848Z" fill="black"/>
</svg>
